<svg id="图层_1" data-name="图层 1" xmlns="http://www.w3.org/2000/svg" viewBox="0 0 50 50"><defs><style>.cls-1{fill:#fff;}</style></defs><title>公告</title><path class="cls-1" d="M25,.87,12.77,12.94H4.09A4.05,4.05,0,0,0,0,17V33a4.05,4.05,0,0,0,4.09,4h8.68L25,49.13a4.05,4.05,0,0,0,4.08-4V4.89A4.05,4.05,0,0,0,25,.87ZM25,45,14.3,33.33H4.09V17.24H14.3L25,5.6V45Zm24.22-18.2c.4,0,.73-.79.73-1.76s-.33-1.76-.73-1.76H44.14c-.4,0-.73.79-.73,1.76s.33,1.76.73,1.76ZM49.8,4c.35-.2.23-1-.26-1.89S48.36.72,48,.91L43.58,3.43c-.35.2-.23,1,.26,1.89S45,6.68,45.37,6.48ZM49.8,46c.35.2.23,1-.26,1.89S48.36,49.28,48,49.09l-4.43-2.51c-.35-.2-.23-1,.26-1.89s1.18-1.37,1.53-1.17ZM32,34c-.36-1-.26-1.88.72-2.24,2.48-1.13,3.66-3.31,4-6.06a7.06,7.06,0,0,0-3.9-7.36A1.67,1.67,0,0,1,32.09,16a1.72,1.72,0,0,1,2.43-.67c4,2.28,6.37,6.24,5.87,10.81a10.62,10.62,0,0,1-6.13,8.61A1.63,1.63,0,0,1,32,34Zm0,0"/></svg>