<svg id="图层_1" data-name="图层 1" xmlns="http://www.w3.org/2000/svg" viewBox="0 0 50 50"><defs><style>.cls-1{fill:#fff;}</style></defs><title>未标题-2</title><path class="cls-1" d="M41.14,19.6C39.44,11.44,32.81,5.73,24.91,5.73S10.38,11.43,8.67,19.6a2.32,2.32,0,0,0-1.92,2.51V39.72a2.3,2.3,0,0,0,2,2.51h.61a2.31,2.31,0,0,0,2-2.51V22.11a2.67,2.67,0,0,0-1-2.17A14.94,14.94,0,0,1,24.91,9.14a14.94,14.94,0,0,1,14.54,10.8,2.68,2.68,0,0,0-1,2.16V39.72a2.35,2.35,0,0,0,1.86,2.51,13,13,0,0,1-11.07.68,1.4,1.4,0,0,0,.07-.46,1.55,1.55,0,1,0-.28.88,14,14,0,0,0,12.34-1.11,2.41,2.41,0,0,0,1.71-2.49V22.11a2.3,2.3,0,0,0-1.94-2.51ZM0,28.7v4.44c0,4.07,2.31,7.48,5.39,8.29v-21C2.31,21.23,0,24.63,0,28.7Zm44.61-8.29v21c3.08-.81,5.39-4.21,5.39-8.29V28.71c0-4.09-2.31-7.49-5.39-8.3Zm0,0"/></svg>