<svg id="图层_1" data-name="图层 1" xmlns="http://www.w3.org/2000/svg" viewBox="0 0 50 50"><defs><style>.cls-1{fill:#fff;}</style></defs><title>未标题-2</title><path class="cls-1" d="M35.46,4.43a3.25,3.25,0,0,0-4.42,0c-2.06,1.88-5.49,8.08-4.89,8.66s7.17-2.64,9.29-4.65a2.74,2.74,0,0,0,0-4ZM23.83,13.1c.6-.57-2.82-6.78-4.9-8.67a3.25,3.25,0,0,0-4.42,0,2.74,2.74,0,0,0,0,4c2.13,2,8.64,5.27,9.29,4.65Zm2.39,2.38V25H46.45a1.2,1.2,0,0,0,1.17-1.19V16.67a1.18,1.18,0,0,0-1.17-1.19H26.23Zm-2.38,0H3.55a1.2,1.2,0,0,0-1.17,1.19v7.14A1.18,1.18,0,0,0,3.55,25H23.84V15.48Zm0,11.91H4.76V40.48a6.06,6.06,0,0,0,5.95,5.95H23.85Zm2.38,0v19H39.29a6,6,0,0,0,6-6V27.39ZM33,13.1H46.45A3.56,3.56,0,0,1,50,16.68v7.14a3.59,3.59,0,0,1-2.38,3.37v13.3a8.44,8.44,0,0,1-8.34,8.34H10.71a8.44,8.44,0,0,1-8.34-8.34V27.19A3.56,3.56,0,0,1,0,23.81V16.67A3.58,3.58,0,0,1,3.55,13.1H17a21.58,21.58,0,0,1-4.14-2.93,5.12,5.12,0,0,1,0-7.46,5.63,5.63,0,0,1,7.66,0A21.5,21.5,0,0,1,25,9.06,21.56,21.56,0,0,1,29.42,2.7a5.63,5.63,0,0,1,7.66,0,5.12,5.12,0,0,1,0,7.46,20.94,20.94,0,0,1-4.16,3Zm0,0"/></svg>