<?xml version="1.0" encoding="utf-8"?>
<!-- Generator: Adobe Illustrator 21.0.0, SVG Export Plug-In . SVG Version: 6.00 Build 0)  -->
<svg version="1.1" id="图层_1" xmlns="http://www.w3.org/2000/svg" xmlns:xlink="http://www.w3.org/1999/xlink" x="0px" y="0px"
	 viewBox="0 0 50 50" style="enable-background:new 0 0 50 50;" xml:space="preserve">
<style type="text/css">
	.st0{fill:#FFFFFF;}
</style>
<path class="st0" d="M47.1,34c-0.3-4.8-3.6-8.8-5.4-10.9c0.3-0.6,0.9-4.1-1.5-6.5c0-0.1,0-0.1,0-0.2c0-9.4-6.7-16.2-15.2-16.3
	c-8.4,0-15.2,6.8-15.2,16.3c0,0.1,0,0.1,0,0.2c-2.4,2.4-1.8,5.9-1.5,6.5C6.4,25.1,3.2,29.2,2.9,34c-0.1,1.3,0.1,3.1,0.8,3.9
	c0.8,1,2.8-0.2,4.3-3.4c0.4,1.5,1.4,3.7,3.5,6.6c-3.6,0.8-4.6,4.4-3.4,6.3c0.9,1.4,2.8,2.5,6.2,2.5c6,0,8.6-1.6,9.8-2.7
	c0.2-0.2,0.6-0.4,1-0.4c0.4,0,0.8,0.1,1,0.4c1.2,1.1,3.8,2.7,9.8,2.7c3.4,0,5.3-1.1,6.2-2.5c1.2-1.9,0.2-5.5-3.4-6.3
	c2.1-2.9,3.1-5.1,3.5-6.6c1.5,3.2,3.5,4.4,4.3,3.4C47,37.1,47.2,35.2,47.1,34L47.1,34z"/>
</svg>
